<svg width="52" height="36" viewBox="0 0 52 36" fill="none" xmlns="http://www.w3.org/2000/svg">
<rect x="0.000244141" width="52" height="36" rx="18" fill="#292929"/>
<g clip-path="url(#clip0_1_57)">
<path d="M17.6669 18.17C17.6669 16.263 17.6669 15.3095 18.0996 14.519C18.5322 13.7286 19.3227 13.238 20.9036 12.2569L22.5703 11.2225C24.2414 10.1853 25.077 9.66675 26.0002 9.66675C26.9235 9.66675 27.7591 10.1853 29.4302 11.2225L31.0969 12.2569C32.6778 13.238 33.4682 13.7286 33.9009 14.519C34.3336 15.3095 34.3336 16.263 34.3336 18.17V19.4375C34.3336 22.6883 34.3336 24.3137 33.3573 25.3235C32.381 26.3334 30.8096 26.3334 27.6669 26.3334H24.3336C21.1909 26.3334 19.6195 26.3334 18.6432 25.3235C17.6669 24.3137 17.6669 22.6883 17.6669 19.4375V18.17Z" stroke="white" stroke-width="1.5"/>
<path d="M26.0002 20.5L26.0002 23" stroke="white" stroke-width="1.5" stroke-linecap="round"/>
</g>
<defs>
<clipPath id="clip0_1_57">
<rect width="20" height="20" fill="white" transform="translate(16.0002 8)"/>
</clipPath>
</defs>
</svg>
