<svg width="613" height="613" viewBox="0 0 613 613" fill="none" xmlns="http://www.w3.org/2000/svg">
<circle cx="306.5" cy="306.5" r="296.5" fill="#E6E6E6" stroke="#102A39" stroke-width="20"/>
<path d="M556 193.5L544 180H536H432L435 459V499.5L437.5 502L442.5 507L448.5 517.5V524L445 536.5L437.5 543.5L429 547L417 543.5L408.5 536.5L350.5 533.5L346.5 536.5V541V547L341.5 555L335.5 561.5L330.5 565L326.5 568.5H318H308V574.5V594L358 591L388 583.5L421 572L457.5 555L493 529.5L524.5 499.5L546 472L561 448L574 418.5L582 399.5L590 378.5L594 361.5V350V343.5L597 335.5V318V302V280.5L594 260.5L590 242.5L584.5 226.5L569 210L556 193.5Z" fill="#C2CACE"/>
<rect x="83.5" y="135.5" width="447" height="317" rx="61.5" fill="#F3F4F1" stroke="#102A39" stroke-width="15"/>
<path d="M116.113 234.148L116.138 233.971V233.792C116.138 200.141 146.338 172.5 182.82 172.5C218.961 172.5 248.5 205.901 248.5 239.889C248.5 256.822 241.142 274.781 229.148 288.512C217.161 302.233 200.757 311.5 182.82 311.5C164.825 311.5 146.667 302.284 133.712 287.879C120.773 273.491 113.229 254.158 116.113 234.148Z" stroke="#09222E" stroke-width="5"/>
<circle cx="180" cy="223" r="31" fill="#0B2531"/>
<path d="M142.078 264.681L125 275.168V279.975L131.028 285.218L135.548 289.588L142.078 295.706L145.092 298.328L153.129 303.571L162.171 307.941L175.23 311H186.783L199.843 307.941L211.396 303.571L221.945 295.706L234 283.034V277.79L224.456 267.303L214.912 262.496L205.871 259L199.843 262.496L193.313 267.303H178.244L165.687 264.681L153.129 259L142.078 264.681Z" fill="#0C2532"/>
<rect x="121" y="350" width="200" height="17" rx="8.5" fill="#0B2534"/>
<rect x="121" y="380" width="200" height="17" rx="8.5" fill="#0B2534"/>
<rect x="121" y="406" width="200" height="17" rx="8.5" fill="#0B2534"/>
<circle cx="360" cy="275" r="35" stroke="#0C2E3E" stroke-width="16"/>
<circle cx="360" cy="275" r="35" stroke="black" stroke-opacity="0.2" stroke-width="16"/>
<path d="M455 399C473.072 399 488 384.601 488 366.5C488 348.399 473.072 334 455 334C436.928 334 422 348.399 422 366.5C422 384.601 436.928 399 455 399Z" stroke="#0C2E3E" stroke-width="16"/>
<path d="M455 399C473.072 399 488 384.601 488 366.5C488 348.399 473.072 334 455 334C436.928 334 422 348.399 422 366.5C422 384.601 436.928 399 455 399Z" stroke="black" stroke-opacity="0.2" stroke-width="16"/>
<path d="M455 229.5C471.423 229.5 484.5 215.936 484.5 199.5C484.5 183.064 471.423 169.5 455 169.5C438.577 169.5 425.5 183.064 425.5 199.5C425.5 215.936 438.577 229.5 455 229.5Z" stroke="#0C2E3E" stroke-width="13"/>
<circle cx="549.5" cy="294.5" r="17" stroke="#0C2E3E" stroke-width="13"/>
<rect x="388" y="248.968" width="52.069" height="14.2878" transform="rotate(-44.1213 388 248.968)" fill="#092335"/>
<rect x="392.617" y="298.993" width="56.5567" height="13.3546" transform="rotate(42.0704 392.617 298.993)" fill="#092335"/>
<rect x="534.772" y="294.103" width="67.6066" height="13.3546" transform="rotate(133.969 534.772 294.103)" fill="#092335"/>
<rect x="526.224" y="276.296" width="72.1887" height="10.4708" transform="rotate(-135.201 526.224 276.296)" fill="#092335"/>
<rect x="189" y="110" width="15" height="21" fill="#092737"/>
<path d="M196 105.5C204.918 105.5 210.5 97.5884 210.5 90C210.5 82.4116 204.918 74.5 196 74.5C187.082 74.5 181.5 82.4116 181.5 90C181.5 97.5884 187.082 105.5 196 105.5Z" stroke="#092331" stroke-width="15"/>
<circle cx="426.5" cy="89.5" r="16" stroke="#102D3F" stroke-width="13"/>
<rect x="214" y="79" width="64" height="12" fill="#082830"/>
<rect x="246" y="129.56" width="48.5361" height="11.6098" transform="rotate(-40.559 246 129.56)" fill="#092737"/>
<path d="M309.5 107C324.335 107 336 94.7092 336 80C336 65.2908 324.335 53 309.5 53C294.665 53 283 65.2908 283 80C283 94.7092 294.665 107 309.5 107Z" stroke="#102D3F" stroke-width="16"/>
<rect x="301.465" y="135.757" width="23.7558" height="15.4948" transform="rotate(-89.8304 301.465 135.757)" fill="#092737"/>
<rect x="341" y="79" width="67" height="12" fill="#102D3F"/>
<rect x="419.255" y="131.582" width="23.411" height="15.7872" transform="rotate(-90.6244 419.255 131.582)" fill="#102D3F"/>
<rect x="371.33" y="131.196" width="49.4195" height="14.2347" transform="rotate(-48.822 371.33 131.196)" fill="#102D3F"/>
<rect x="435.235" y="504.45" width="15" height="47.993" transform="rotate(179.65 435.235 504.45)" fill="#092737"/>
<path d="M426.47 507.164C417.553 507.289 412.082 515.278 412.189 522.866C412.296 530.454 417.989 538.286 426.906 538.161C435.822 538.035 441.293 530.046 441.186 522.458C441.08 514.87 435.386 507.038 426.47 507.164Z" stroke="#092331" stroke-width="15"/>
<circle cx="196.217" cy="526.405" r="16" transform="rotate(179.194 196.217 526.405)" stroke="#102D3F" stroke-width="13"/>
<rect x="410.956" y="535.638" width="66.9588" height="12" transform="rotate(-179.453 410.956 535.638)" fill="#082830"/>
<rect x="363.472" y="446.984" width="82.8494" height="15.0321" transform="rotate(46.8059 363.472 446.984)" fill="#092737"/>
<path d="M312.96 507.261C298.126 507.469 286.635 519.923 286.842 534.631C287.049 549.339 298.886 561.464 313.719 561.255C328.553 561.047 340.044 548.593 339.837 533.885C339.63 519.177 327.794 507.052 312.96 507.261Z" stroke="#102D3F" stroke-width="16"/>
<rect x="321.88" y="458.573" width="44.3939" height="15.4948" transform="rotate(90.4985 321.88 458.573)" fill="#092737"/>
<rect x="281.615" y="537.009" width="67" height="12" transform="rotate(-178.567 281.615 537.009)" fill="#102D3F"/>
<rect x="202.009" y="454.621" width="53.218" height="15.0532" transform="rotate(89.9591 202.009 454.621)" fill="#102D3F"/>
<rect x="230.728" y="447.927" width="90.0939" height="14.2347" transform="rotate(45.624 230.728 447.927)" fill="#102D3F"/>
<ellipse cx="563" cy="74.5" rx="6" ry="8.5" fill="#164254"/>
<circle cx="556" cy="557" r="12" fill="#0A2633"/>
<ellipse cx="584.5" cy="74" rx="8.5" ry="9" fill="#164254"/>
<circle cx="584.5" cy="100.5" r="8.5" fill="#164254"/>
<rect x="86" y="235" width="30" height="18" fill="#152D3C"/>
</svg>
